<?xml version="1.0" encoding="utf-8"?>
<!-- Generator: Adobe Illustrator 25.0.1, SVG Export Plug-In . SVG Version: 6.00 Build 0)  -->
<svg version="1.1" id="Layer_1" xmlns="http://www.w3.org/2000/svg" xmlns:xlink="http://www.w3.org/1999/xlink" x="0px" y="0px"
	 viewBox="0 0 331.710022 221.7550201" enable-background="new 0 0 331.710022 221.7550201" xml:space="preserve">
<path opacity="0.7" fill="#FFFFFF" enable-background="new    " d="M34.9615364,184.44664
	c1.3886719-1.3998413,2.8088989-2.8294067,4.2567139-4.2848511l-28.6482544,16.5394287l-28.960022-16.7099609
	l-125.4899902,72.4599609l-22.7099609-13.1199951l-27.7000122,15.9799805l1.5899658,0.9200287l26.0900269-15.0699921
	l22.7200317,13.1199951l125.499939-72.4599609l28.9500122,16.7099609L34.9615364,184.44664z"/>
<polygon opacity="0.7" fill="#FFFFFF" enable-background="new    " points="18.2349968,246.853241 43.5349998,232.2432556 
	20.3749962,218.8732452 50.6450005,201.3932495 64.5050049,209.3932495 62.9149971,210.3132477 50.6349983,203.2232513 
	23.5449944,218.8632507 46.704998,232.2432556 18.2249947,248.6832428 -32.8550072,219.2032471 -73.6850052,242.7732544 
	-39.2450066,262.663269 -67.1249924,278.7632446 -89.1050034,266.0732422 -153.2449951,303.1132507 -114.8449936,325.2832642 
	-116.4350052,326.2032471 -156.4150085,303.1132507 -89.0849991,264.2432556 -67.1149979,276.9332581 -42.4150047,262.663269 
	-76.8649979,242.7832489 -32.8350029,217.3632507 "/>
<path opacity="0.7" fill="#FFFFFF" enable-background="new    " d="M362.5377808-2.4286079
	c-0.3811646,0.3748169-0.7605591,0.7514648-1.1418457,1.1260986l20.5281372,11.8624878l-46.8500366,27.0499878
	l-33.8699951-17.4799805l-52.1900177,30.1400146l35.6300201,20.5600014l-53.4400177,30.8599854l1.5900269,0.9099731
	l55.0200348-31.7699585l-35.6300201-20.5700111l49.0999908-28.3499756l33.8599854,17.4799805l49.9500122-28.8400269
	l-22.475647-12.9780273C362.5915527-2.4282417,362.5646362-2.4284248,362.5377808-2.4286079z"/>
<polygon opacity="0.7" fill="#FFFFFF" enable-background="new    " points="246.2000122,21.1714802 220.8999939,35.7814674 
	244.0599976,49.1514778 213.7900085,66.6314697 199.9299927,58.6314735 201.5200043,57.7114754 213.8000031,64.8014679 
	240.8900146,49.1614723 217.730011,35.7814674 246.2100067,19.3414783 297.2900085,48.821476 338.1199951,25.2514668 
	303.6799927,5.3614674 331.5599976,-10.7385235 353.5400085,1.9514791 417.6799927,-35.0885277 379.2799988,-57.2585258 
	380.8699951,-58.178524 420.8500061,-35.0885277 353.5200195,3.7814658 331.5499878,-8.9085217 306.8500061,5.3614674 
	341.2999878,25.2414722 297.2700195,50.6614723 "/>
<g opacity="0.7">
	<polygon fill="#FFFFFF" points="207.5800018,76.4499969 169.4799957,98.4400024 149.4400024,86.8700104 82.5599976,125.480011 
		80.9799957,124.5700073 149.4499969,85.0400085 169.5,96.6100006 207.5899963,74.6199951 230.2100067,87.6699982 
		228.6200104,88.5900116 	"/>
	<polygon fill="#FFFFFF" points="68.7400055,138.0900116 43.4399986,152.6999969 66.6000061,166.0700073 36.329998,183.5500031 
		22.4699974,175.5500031 24.0600014,174.6300049 36.3400002,181.7200012 63.4300041,166.0800018 40.2700005,152.6999969 
		68.75,136.2600098 119.8300018,165.7400055 160.6600037,142.1699982 126.2200012,122.2799988 154.0999908,106.1800079 
		176.0800018,118.8700104 240.219986,81.8300018 201.8199921,59.6599998 203.4100037,58.7400017 243.3899994,81.8300018 
		176.0599976,120.6999969 154.0899963,108.0100098 129.3899994,122.2799988 163.8399963,142.1600037 119.8099976,167.5800018 	"/>
	<polygon fill="#FFFFFF" points="254.3000031,112.730011 128.8099976,185.1900024 99.8499908,168.480011 66.6800079,187.6300049 
		46.7400017,176.1100006 48.329998,175.1900024 66.6999969,185.7900085 99.8600006,166.6500092 128.8099976,183.3600006 
		254.3099823,110.9000092 277.0299988,124.0200043 303.1200256,108.9499969 304.710022,109.8700104 277.0100098,125.8500061 	"/>
	<polygon fill="#FFFFFF" points="58.579998,217.2200165 112.0200043,186.3600006 76.3899994,165.8000031 128.5800018,135.6600037 
		162.4499969,153.1399994 209.3000031,126.0900116 186.4400024,112.8800049 212.6800079,97.730011 230.9900055,108.3000031 
		229.3899994,109.230011 212.6699982,99.5700073 189.6100006,112.8800049 212.469986,126.0800018 162.5200043,154.9199982 
		128.6600037,137.4400024 79.5599976,165.7900085 115.1900024,186.3600006 60.170002,218.1299896 	"/>
</g>
<g>
	<path fill="#FFFFFF" d="M297.3800049,92.6900024c-0.0400085-1.0200043,0.1700134-1.9700012,0.6400146-2.8500061
		c0.1300049-0.3899994,0.2900085-0.75,0.4899902-1.0899963c-0.7999878,1.2200012-1.269989,2.6699982-1.269989,4.2299957h0.1499939
		C297.3900146,92.8700104,297.3900146,92.7799988,297.3800049,92.6900024z"/>
	<path fill="#FFFFFF" d="M311.3900146,88.6800079c0.730011,1.1900024,1.0799866,2.6000061,1.1400146,3.9900055
		c0,0.1000061,0,0.1999969,0,0.3000031h0.1600037C312.6900024,91.3800049,312.210022,89.9100037,311.3900146,88.6800079z"/>
	<path fill="#FFFFFF" d="M302.7200012,85.5900116c0.1600037-0.0500031,0.3299866-0.1000061,0.5-0.1399994
		c-0.2600098,0.0599976-0.5100098,0.1300049-0.75,0.2100067v0.0099945
		C302.5500183,85.6399994,302.6400146,85.6200104,302.7200012,85.5900116z"/>
	<path fill="#4D3D36" d="M310.3500061,86.4000092c-0.019989-0.0299988-0.0499878-0.0500031-0.0799866-0.0700073
		c-0.6700134-0.5399933-1.4299927-0.9799957-2.2399902-1.2899933c-0.019989-0.0099945-0.0400085-0.0200043-0.0700073-0.0299988
		c-0.8399963-0.3200073-1.7399902-0.5-2.6799927-0.5399933c0-0.0099945-0.0100098-0.0099945-0.0100098-0.0200043
		c-0.2000122,0-0.4100037,0-0.6099854,0c0,0.0099945-0.0100098,0.0099945-0.0100098,0.0200043
		c-0.9400024,0.0299988-1.8399963,0.2200012-2.6799927,0.5399933c-0.019989,0.0099945-0.0499878,0.0099945-0.0700073,0.0299988
		c-0.8200073,0.3200073-1.5700073,0.75-2.2399902,1.2899933c-0.0299988,0.0200043-0.0599976,0.0399933-0.0799866,0.0700073
		c-1.8999939,1.5599976-3.1199951,3.9299927-3.1199951,6.5700073c0,0.2200012,0.1700134,0.3899994,0.3900146,0.3899994
		s0.3900146-0.1699982,0.3900146-0.3899994c0-1.5599976,0.4700012-3.0099945,1.2600098-4.2299957
		c0.2799988-0.4700012,0.6199951-0.9100037,1.0400085-1.3000031c0.6000061-0.6000061,1.3399963-1.1000061,2.1300049-1.4700012l0,0
		l0,0c0.25-0.1199951,0.5100098-0.2200012,0.7799988-0.3099976v-0.0099945c0.25-0.0800018,0.5-0.1499939,0.7600098-0.2100067
		c0.5499878-0.1300049,1.1099854-0.1999969,1.6600037-0.1999969c0.0100098,0,0.0100098,0,0.019989,0h0.0100098
		c0.0299988,0,0.0599976,0,0.0899963,0c0.019989,0,0.0299988,0,0.0499878,0c0,0,0,0,0.0100098,0l0,0
		c0.0100098,0,0.0100098,0,0.019989,0c0.0499878,0,0.1000061,0,0.1499939,0c0.0899963,0,0.1799927,0,0.2600098,0.0099945l0,0l0,0
		c0.0599976,0,0.1199951,0.0099945,0.1799927,0.0099945l0,0l0,0l0,0c0.1099854,0.0099945,0.2200012,0.0200043,0.3299866,0.0399933
		l0,0l0,0h0.0100098l0,0l0,0c0.0400085,0.0099945,0.0799866,0.0099945,0.1199951,0.0200043
		c0.0599976,0.0099945,0.1199951,0.0200043,0.1700134,0.0299988c0.0100098,0,0.019989,0,0.0400085,0.0099945l0,0
		c0.0100098,0,0.019989,0,0.0299988,0.0099945c0.6499939,0.1199951,1.269989,0.3200073,1.8599854,0.6100006l0,0
		c0.5100098,0.2400055,0.9899902,0.5399933,1.4299927,0.8800049v0.0099945
		c0.230011,0.1799927,0.4599915,0.3600006,0.6799927,0.5700073c0.4100037,0.3800049,0.7600098,0.8099976,1.0400085,1.2799988
		c0.8099976,1.2200012,1.2900085,2.6900024,1.2900085,4.2599945c0,0.2200012,0.1700134,0.3899994,0.3900146,0.3899994
		s0.3900146-0.1699982,0.3900146-0.3899994C313.4700012,90.3200073,312.25,87.9600067,310.3500061,86.4000092z"/>
	<path fill="#4D3D36" stroke="#4D3D36" stroke-width="0.5" stroke-miterlimit="10" d="M304.9700012,83.0400085
		c-2.3099976,0-4.1799927-1.8699951-4.1799927-4.1799927s1.8699951-4.1800079,4.1799927-4.1800079
		s4.1799927,1.8700104,4.1799927,4.1800079C309.1500244,81.1600037,307.2799988,83.0299988,304.9700012,83.0400085z
		 M304.9700012,74.8300018c-2.2200012,0-4.0299988,1.8000031-4.0299988,4.0299988s1.7999878,4.0299988,4.0299988,4.0299988
		c2.2200012,0,4.0299988-1.8000031,4.0299988-4.0299988l0,0C308.9900208,76.6300049,307.1900024,74.8300018,304.9700012,74.8300018z
		"/>
	<path fill="#4D3D36" stroke="#4D3D36" stroke-width="0.5" stroke-miterlimit="10" d="M304.9900208,81.5
		c-1.1499939,0-2.1499939-0.8099976-2.3800049-1.9400024c-0.0100098-0.0500031,0.019989-0.1000061,0.0799866-0.1100006
		c0.0499878-0.0099945,0.1000061,0.0200043,0.1099854,0.0800018c0.25,1.2100067,1.4299927,1.9900055,2.6400146,1.7400055
		c0.8800049-0.1799927,1.5599976-0.8600006,1.7399902-1.7400055c0.0100098-0.0500031,0.0599976-0.0899963,0.1099854-0.0800018
		s0.0899963,0.0599976,0.0799866,0.1100006C307.1400146,80.6800079,306.1500244,81.5,304.9900208,81.5z"/>
</g>
<g>
	<g>
		<path fill="#FFFFFF" d="M200.75,33.4799995c-1.3800049,1.4000015-2.2400055,3.3300018-2.2400055,5.4499969h2.25
			C200.75,38.8999977,200.75,38.8699989,200.75,38.8499947V33.4799995L200.75,33.4799995z"/>
		<path fill="#FFFFFF" d="M211.7799988,38.8400002c0,0.0299988,0,0.0599976-0.0099945,0.0800018h2.25
			c0-2.1200027-0.8599854-4.0400009-2.2400055-5.4499969V38.8400002L211.7799988,38.8400002z"/>
		<path fill="#FFFFFF" d="M206.6499939,31.1800041v1.0100021c0,0.2200012-0.1799927,0.3899994-0.3899994,0.3899994
			s-0.3899994-0.1800003-0.3899994-0.3899994v-1.0100021c-0.7400055,0.0400009-1.4499969,0.1800003-2.1199951,0.4100037v3.2200012
			h5.0200043v-3.2200012C208.0999908,31.3599968,207.3899994,31.2199974,206.6499939,31.1800041z"/>
		<path fill="#D35B38" d="M211,32.7899971c-0.4400024-0.3399963-0.9299927-0.6399994-1.4400024-0.8799973v3.2900009
			c0,0.2200012-0.1799927,0.3899994-0.3899994,0.3899994h-5.8099976c-0.2200012,0-0.3899994-0.1800003-0.3899994-0.3899994
			v-3.2900009c-0.5099945,0.2399979-0.9900055,0.5400009-1.4400024,0.8799973v6.0500031
			c0,0.0299988,0,0.0599976-0.0099945,0.0800018h9.4900055c-0.0099945-0.0299988-0.0099945-0.0599976-0.0099945-0.0800018
			v-6.0500031H211z M204.3999939,37.1599998h-1.0399933c-0.2200012,0-0.3899994-0.1800003-0.3899994-0.3899994
			c0-0.2200012,0.1799927-0.3899994,0.3899994-0.3899994h1.0399933c0.2200012,0,0.3899994,0.1800003,0.3899994,0.3899994
			S204.6199951,37.1599998,204.3999939,37.1599998z M209.1699982,37.1599998h-3.1999969
			c-0.2200012,0-0.3899994-0.1800003-0.3899994-0.3899994c0-0.2200012,0.1799927-0.3899994,0.3899994-0.3899994h3.1999969
			c0.2200012,0,0.3899994,0.1800003,0.3899994,0.3899994S209.3799896,37.1599998,209.1699982,37.1599998z"/>
		<path fill="#C37C4D" d="M202.5800018,24.7199974c0,2.0299988,1.6499939,3.6800003,3.6799927,3.6800003
			s3.6799927-1.6500015,3.6799927-3.6800003c0-0.1399994-0.0099945-0.2900009-0.0299988-0.4300003h-7.3099976
			C202.5899963,24.4399986,202.5800018,24.579998,202.5800018,24.7199974z"/>
		<path fill="#FCDB5A" d="M209.7599945,23.5099983l-0.8600006-3.5899963
			c-0.0399933-0.1600037-0.1399994-0.2900009-0.2799988-0.3799973c-0.1399994-0.0800018-0.3000031-0.0999985-0.4600067-0.0500031
			l-1.7400055,0.5199966c-0.0700073,0.0199966-0.1499939,0.0199966-0.2200012,0l-1.7400055-0.5199966
			c-0.1600037-0.0500031-0.3300018-0.0299988-0.4700012,0.0500031s-0.2400055,0.2099991-0.2899933,0.3799973l-0.9199982,3.5899963
			H209.7599945L209.7599945,23.5099983z"/>
		<path fill="#4D3D36" d="M211.6699982,32.329998c-0.0200043-0.0299988-0.0500031-0.0500031-0.0800018-0.0699997
			c-0.6799927-0.5400009-1.4299927-0.9800034-2.25-1.3000031c-0.0200043-0.0100021-0.0399933-0.0199966-0.0700073-0.0299988
			c-0.8399963-0.3199997-1.75-0.5100021-2.6900024-0.5400009c-0.0700073-0.0999985-0.1900024-0.1600037-0.3200073-0.1600037
			s-0.25,0.0599976-0.3200073,0.1600037c-0.9400024,0.0299988-1.8500061,0.2200012-2.6900024,0.5400009
			c-0.0200043,0.0100021-0.0500031,0.0199966-0.0700073,0.0299988c-0.8200073,0.3199997-1.5800018,0.7600021-2.25,1.3000031
			c-0.0299988,0.0199966-0.0599976,0.0400009-0.0800018,0.0699997c-1.9100037,1.5699997-3.1300049,3.9400024-3.1300049,6.5999985
			c0,0.2200012,0.1799927,0.3899994,0.3899994,0.3899994s0.3899994-0.1800003,0.3899994-0.3899994
			c0-2.1200027,0.8600006-4.0400009,2.2400055-5.4499969v5.3600006c0,0.0299988,0,0.0599976,0.0099945,0.0800018
			c0.0399933,0.1800003,0.1900024,0.3099976,0.3800049,0.3099976s0.3399963-0.1299973,0.3800049-0.3099976
			c0.0099945-0.0299988,0.0099945-0.0599976,0.0099945-0.0800018v-6.0599976
			c0.4400024-0.3399963,0.9299927-0.6399994,1.4400024-0.8799973v3.2900009c0,0.2200012,0.1799927,0.3899994,0.3899994,0.3899994
			h5.8099976c0.2200012,0,0.3899994-0.1800003,0.3899994-0.3899994v-3.2900009
			c0.5099945,0.2399979,0.9900055,0.5400009,1.4400024,0.8799973v6.0599976c0,0.0299988,0,0.0599976,0.0099945,0.0800018
			c0.0399933,0.1800003,0.1900024,0.3099976,0.3800049,0.3099976s0.3399963-0.1299973,0.3800049-0.3099976
			c0.0099945-0.0299988,0.0099945-0.0599976,0.0099945-0.0800018v-5.3600006
			c1.3799896,1.4000015,2.2400055,3.3300018,2.2400055,5.4499969c0,0.2200012,0.1799927,0.3899994,0.3900146,0.3899994
			c0.2200012,0,0.3900146-0.1800003,0.3900146-0.3899994C214.8000031,36.2700005,213.5800018,33.8900032,211.6699982,32.329998z
			 M203.75,34.8100014v-3.2200012c0.6699982-0.2300034,1.3800049-0.3700027,2.1199951-0.4100037v1.0100021
			c0,0.2200012,0.1799927,0.3899994,0.3899994,0.3899994s0.3899994-0.1800003,0.3899994-0.3899994v-1.0100021
			c0.7400055,0.0400009,1.4499969,0.1800003,2.1199951,0.4100037v3.2200012H203.75z"/>
		<path fill="#4D3D36" d="M200.0699921,24.2899971h1.75c-0.0099945,0.1399994-0.0200043,0.2900009-0.0200043,0.4300003
			c0,2.4599991,2,4.4700012,4.4700012,4.4700012c2.4600067,0,4.4700012-2,4.4700012-4.4700012
			c0-0.1399994-0.0099945-0.2900009-0.0200043-0.4300003h1.7399902c0.2200012,0,0.3900146-0.1800003,0.3900146-0.3899994
			c0-0.2200012-0.1799927-0.3899994-0.3900146-0.3899994h-1.8800049l-0.9100037-3.7799988
			c-0.0899963-0.3700027-0.3200073-0.6800003-0.6499939-0.8700027c-0.3300018-0.1900024-0.7100067-0.2300034-1.0800018-0.1200027
			l-1.6199951,0.4899979l-1.6199951-0.4899979c-0.3699951-0.1100006-0.75-0.0699997-1.0800018,0.1200027
			s-0.5599976,0.4899979-0.6600037,0.8600006l-0.9700012,3.7900009h-1.8999939
			c-0.2200012,0-0.3899994,0.1800003-0.3899994,0.3899994C199.6799927,24.1199989,199.8499908,24.2899971,200.0699921,24.2899971z
			 M203.9899902,19.5399971c0.1399994-0.0800018,0.3099976-0.0999985,0.4700012-0.0500031l1.7400055,0.5199966
			c0.0700073,0.0199966,0.1499939,0.0199966,0.2200012,0l1.7400055-0.5199966
			c0.1600037-0.0500031,0.3200073-0.0299988,0.4600067,0.0500031s0.2400055,0.2099991,0.2799988,0.3799973l0.8600006,3.5899963
			h-6.9799957l0.9199982-3.5899963C203.7399902,19.7599983,203.8399963,19.6199989,203.9899902,19.5399971z M209.9499969,24.7199974
			c0,2.0299988-1.6499939,3.6800003-3.6799927,3.6800003s-3.6799927-1.6500015-3.6799927-3.6800003
			c0-0.1399994,0.0099945-0.2900009,0.0299988-0.4300003h7.3099976
			C209.9400024,24.4399986,209.9499969,24.579998,209.9499969,24.7199974z"/>
		<path fill="#4D3D36" d="M209.1699982,36.3699989h-3.1999969c-0.2200012,0-0.3899994,0.1800003-0.3899994,0.3899994
			c0,0.2200012,0.1799927,0.3899994,0.3899994,0.3899994h3.1999969c0.2200012,0,0.3899994-0.1800003,0.3899994-0.3899994
			S209.3799896,36.3699989,209.1699982,36.3699989z"/>
		<path fill="#4D3D36" d="M204.3999939,36.3699989h-1.0399933c-0.2200012,0-0.3899994,0.1800003-0.3899994,0.3899994
			c0,0.2200012,0.1799927,0.3899994,0.3899994,0.3899994h1.0399933c0.2200012,0,0.3899994-0.1800003,0.3899994-0.3899994
			S204.6199951,36.3699989,204.3999939,36.3699989z"/>
	</g>
	<path fill="#4D3D36" stroke="#4D3D36" stroke-width="0.5" stroke-miterlimit="10" d="M206.1499939,27.6800041
		C205,27.6800041,204,26.8700066,203.769989,25.7400017c-0.0099945-0.0500031,0.0200043-0.0999985,0.0800018-0.1100006
		s0.1000061,0.0199966,0.1100006,0.0800018c0.25,1.2099991,1.4299927,1.9899979,2.6399994,1.7399979
		c0.8800049-0.1800003,1.5599976-0.8600006,1.7400055-1.7399979c0.0099945-0.0500031,0.0599976-0.0899963,0.1100006-0.0800018
		c0.0500031,0.0100021,0.0899963,0.0599976,0.0800018,0.1100006
		C208.3000031,26.8699989,207.3000031,27.6800041,206.1499939,27.6800041z"/>
</g>
<path fill="#FFFFFF" d="M148.0399933,73.7400055c0,0.0099945,0,0.019989,0,0.0299988h0.75
	c0-0.7100067-0.2899933-1.3500061-0.75-1.8200073V73.7400055L148.0399933,73.7400055z"/>
<path fill="none" d="M152.4100037,73.5899963"/>
<path fill="none" d="M154.5099945,79.9300079"/>
<path fill="#3F3D56" d="M122.0999908,47.7899971c-1.9700012,0-3.5700073,1.5999985-3.5800018,3.5800018v41.1899986
	c0,1.9700012,1.6000061,3.5700073,3.5800018,3.5800018h30.2200012c1.9700012,0,3.5700073-1.6000061,3.5800018-3.5800018V51.3699989
	c0-1.9700012-1.6000061-3.5699997-3.5800018-3.5800018H122.0999908z"/>
<rect x="120.3899994" y="50.329998" fill="#FFFFFF" width="33.6499939" height="43.2700081"/>
<path fill="#3F3D56" d="M128.5699921,56.2599983c-0.3899994,0.5999985-0.8600006,1.1500015-1.3999939,1.6299973H149.5v-1.6299973
	H128.5699921z"/>
<rect x="124.6499939" y="60.6199989" fill="#3F3D56" width="24.8500061" height="1.6299973"/>
<path fill="#3F3D56" d="M125.6600037,66.2799988c-0.0200043-0.4799957,0.1399994-0.9799957,0.4799957-1.3099976h-1.5v1.6300049
	h1.0200043C125.6600037,66.4900055,125.6600037,66.3899994,125.6600037,66.2799988z"/>
<path fill="#3F3D56" d="M147.7599945,64.9700012c0.1900024,0.0800018,0.3500061,0.1900024,0.4799957,0.3300018
	c0.3600006,0.3300018,0.5399933,0.8199921,0.5299988,1.3099976h0.7400055v-1.6300049h-1.75V64.9700012z"/>
<path fill="#3F3D56" d="M126.0399933,69.3200073h-1.3899994v1.6299896h2.3200073
	c-0.0899963-0.0999908-0.1600037-0.2099915-0.2400055-0.3199921
	C126.4199982,70.2400055,126.1900024,69.8000031,126.0399933,69.3200073z"/>
<path fill="#3F3D56" d="M148.1199951,69.3200073c-0.2299957,0.5699921-0.5200043,1.1199951-0.8500061,1.6299896h2.2299957
	v-1.6299896H148.1199951z"/>
<path fill="#3F3D56" d="M130.2799988,73.6800079h-5.6300049v1.6299896h6.5
	C130.7899933,74.8099976,130.5,74.2599945,130.2799988,73.6800079z"/>
<path fill="#3F3D56" d="M145.2299957,73.6800079c-0.5099945,0.5999908-1.0899963,1.1399994-1.7100067,1.6299896h5.9700012
	v-1.6299896H145.2299957z"/>
<rect x="124.6499939" y="78.0299988" fill="#3F3D56" width="24.8500061" height="1.6300049"/>
<path fill="#3F3D56" d="M149.5,83.9100037v-1.5200043h-24.8500061v1.6300049h24.7200012
	C149.4100037,83.980011,149.4599915,83.9400024,149.5,83.9100037z"/>
<path fill="#3F3D56" d="M127.0099945,88.6300049C127.5,88.2900085,128,87.9500122,128.5899963,87.7900085
	c0.5299988-0.1399994,1.1399994-0.1000061,1.5599976,0.2899933c0.3399963,0.3099976,0.4799957,0.8000031,0.2299957,1.2100067
	c-0.1100006,0.1900024-0.2899933,0.3300018-0.5099945,0.3699951c-0.2100067,0.0299988-0.4199982-0.0500031-0.5500031-0.2200012
	c-0.1300049-0.1499939-0.2100067-0.3600006-0.1399994-0.5500031C129.25,88.6900024,129.4499969,88.5599976,129.6399994,88.5
	c0.2299957-0.0700073,0.4600067-0.1199951,0.6900024-0.1399994l0.9600067-0.1300049l3.9400024-0.5399933l4.3899994-0.6000061
	c0.0700073-0.0200043,0.1100006-0.0899963,0.1000061-0.1699982c-0.0200043-0.0700073-0.1000061-0.1100006-0.1699982-0.1000061
	l-8.7299957,1.1900024c-0.3200073,0.0399933-0.6399994,0.0700073-0.9499969,0.1399994
	c-0.25,0.0399933-0.4799957,0.1399994-0.6799927,0.2799988c-0.4199982,0.3300018-0.3899994,0.9199982,0,1.2599945
	c0.3899994,0.3500061,0.9499969,0.2899933,1.3000031-0.1000061c0.3600006-0.3999939,0.3899994-1,0.0899963-1.4400024
	c-0.3699951-0.5599976-1.0500031-0.7799988-1.6999969-0.6999969c-0.75,0.0899963-1.3899994,0.5099945-2,0.9299927
	C126.7299957,88.4900055,126.8699951,88.7200012,127.0099945,88.6300049L127.0099945,88.6300049z"/>
<path fill="#FFC300" d="M149.2198029,83.7862473l-1.2515411,1.2627258l-0.0335236,0.0335236
	c-0.1564484,0.1564407-0.1676178,0.3911133-0.0335236,0.5587234l0.9274902,1.1509705
	c0.0111694,0.0223541,0.0335083,0.0335236,0.0446777,0.0558701c0.0782318,0.1452789,0.0670471,0.3240585-0.0335083,0.4581604
	c-0.6034241,0.7822113-1.0392303,1.676178-1.2962494,2.6260147c-0.0111694,0.0335236-0.0223541,0.0782242-0.044693,0.1117477
	c-0.0782318,0.1229248-0.2234802,0.2011337-0.3687592,0.2011337l-1.2403717-0.0223541
	c-0.1564331,0-0.3128815,0.0894012-0.3799286,0.2234879c-0.0223541,0.044693-0.0335236,0.0894012-0.044693,0.1452713
	l-0.2346649,1.7990952c-0.0335236,0.2234879,0.1229248,0.4358063,0.3352356,0.4804916l1.6091309,0.3464127
	c0.1564331,0.0335159,0.2793579,0.1564407,0.3240509,0.3128815c0.0558777,0.2234879,0.1229248,0.4469757,0.2011261,0.6816483
	c0.1452789,0.4134445,0.3240662,0.8157272,0.536377,1.1956711l0,0c0.0894012,0.1564484,0.0670471,0.3464127-0.044693,0.4804993
	l-1.0727539,1.2850571l-0.0558777,0.0670471c-0.1452789,0.1676102-0.1340942,0.4134521,0.0223541,0.5698929l1.2850647,1.2850571
	c0.1564331,0.1564407,0.4022827,0.1676102,0.5810699,0.0335236l1.2850647-1.0392227
	c0.1452637-0.1117477,0.346405-0.1229172,0.491684-0.0223541c0.6481171,0.4134521,1.3521118,0.7151718,2.1007996,0.9051361
	c0.1899719,0.0558701,0.3240509,0.2234879,0.3128815,0.4134521l-0.0223541,1.4638519
	c0,0.2234879,0.1564484,0.4134521,0.3799286,0.4358063l1.8102722,0.2346725
	c0.2123108,0.0223541,0.4134521-0.1117554,0.4581604-0.3240585l0.4134369-1.8884888
	c0.0335236-0.1564407,0.1564484-0.2905273,0.3128967-0.3240509c0.2011261-0.044693,0.3911133-0.1117554,0.5922394-0.1787949
	c0.3575897-0.1229248,0.7151642-0.2681961,1.0503998-0.4469757c0.1452789-0.0782318,0.3352509-0.0670471,0.4581604,0.044693
	l1.5420837,1.2962418c0.1676178,0.1452713,0.4134521,0.1340866,0.5699005-0.0223541l1.2850494-1.2850571
	c0.1340942-0.1340866,0.1564484-0.346405,0.0670471-0.5140381c-0.0111694-0.0111618-0.0223541-0.0335159-0.0335236-0.0446854
	l-1.1509705-1.430336c-0.1117401-0.1340866-0.1229095-0.3128815-0.0446777-0.4581604
	c0.0111542-0.0111618,0.0111542-0.0223541,0.0223541-0.0335159c0.0223389-0.0335236,0.0446777-0.0670471,0.0670319-0.1117554
	c0.2793732-0.4469757,0.5140381-0.9163132,0.70401-1.4191666c0.0558624-0.1676102,0.2234802-0.2793579,0.4022827-0.2681885
	l1.5532532,0.0223541c0.2234802,0,0.4022675-0.1564484,0.435791-0.3799286l0.0558777-0.4022827l0.1788025-1.3968124
	c0.0335236-0.2234879-0.1117554-0.4246368-0.3352356-0.4693298l-1.5867767-0.346405
	c-0.1676178-0.0335236-0.2905273-0.1787949-0.3240509-0.346405c-0.0670471-0.4581604-0.1788025-0.9163132-0.3240509-1.3521194
	c-0.1117554-0.3240509-0.2458496-0.6481247-0.4022827-0.9610062l0.2234802-0.2681961l0.9274902-1.1062775
	c0.1117401-0.1340942,0.134079-0.3240585,0.0446777-0.4804993c-0.0223541-0.0335236-0.0446777-0.0558777-0.0670319-0.0893936
	l-1.2962494-1.2962494c-0.1564484-0.1564407-0.4022827-0.1564407-0.5699005-0.0335236l-0.8827667,0.7040024
	c-0.1452789,0.1229172-0.3687592,0.1229172-0.5140381,0.0111694c-0.6257629-0.4693298-1.3297729-0.8492584-2.0784607-1.0951004
	c-0.1787872-0.0558701-0.2905273-0.2234802-0.2793579-0.4022827l0.0335236-1.8549652
	c0-0.2123184-0.1452789-0.3799286-0.3575897-0.4134521l-1.8214417-0.2346725
	c-0.212326-0.0335236-0.4134521,0.1117554-0.4581604,0.3240585l-0.4246368,1.9666977
	c-0.0335236,0.1676102-0.1676178,0.3017197-0.346405,0.3240585c-0.3687592,0.0670395-0.7375336,0.1564407-1.095108,0.2905273
	c-0.1899567,0.0670471-0.3911133,0.1452713-0.5810699,0.2234879c-0.1452789,0.0670395-0.3128815,0.0446854-0.4358063-0.0670471
	l-1.4750366-1.2403641C149.6220703,83.6186218,149.376236,83.6298065,149.2198029,83.7862473L149.2198029,83.7862473z
	 M150.7842102,92.6587753c-0.3128815-1.4303284,0.1005707-2.7377472,0.9051361-3.542305
	c2.8495026-2.815979,7.3192902-0.6816483,6.950531,3.2517776c-0.1005554,1.0056992-0.6145935,1.9667053-1.6650085,2.6930542
	C154.5500183,96.7262878,151.398819,95.3965378,150.7842102,92.6587753z"/>
<g>
	<circle fill="#3F3D56" cx="120.9599915" cy="50.8999977" r="8.5"/>
	<circle fill="#FFFFFF" cx="120.9599915" cy="50.8999977" r="7.0800018"/>
	<g>
		<g>
			<path fill="#3F3D56" d="M117.8099976,47.6099968c0,0.4800034-0.2100067,0.9199982-0.75,0.9199982
				c-0.5299988,0-0.7400055-0.4300003-0.7400055-0.9199982c0-0.4800034,0.2100067-0.9199982,0.7400055-0.9199982
				S117.8099976,47.1300011,117.8099976,47.6099968z M116.8399963,47.6099968c0,0.3799973,0.0899963,0.5500031,0.2400055,0.5500031
				c0.1399994,0,0.2299957-0.1699982,0.2299957-0.5500031c0-0.3700027-0.0899963-0.5400009-0.2299957-0.5400009
				C116.9299927,47.0600014,116.8399963,47.2299995,116.8399963,47.6099968z"/>
			<path fill="#3F3D56" d="M120.8899994,47.170002L120.8899994,47.170002l-0.3699951,0.1600037l-0.0800018-0.3799973
				l0.5299988-0.2300034h0.4100037v1.7699966h-0.4900055V47.170002z"/>
			<path fill="#3F3D56" d="M125.7299957,47.6099968c0,0.4800034-0.2100067,0.9199982-0.75,0.9199982
				c-0.5299988,0-0.7400055-0.4300003-0.7400055-0.9199982c0-0.4800034,0.2100067-0.9199982,0.7400055-0.9199982
				C125.5200043,46.6899986,125.7299957,47.1300011,125.7299957,47.6099968z M124.7599945,47.6099968
				c0,0.3799973,0.0899963,0.5500031,0.2400055,0.5500031c0.1399994,0,0.2299957-0.1699982,0.2299957-0.5500031
				c0-0.3700027-0.0899963-0.5400009-0.2299957-0.5400009S124.7599945,47.2299995,124.7599945,47.6099968z"/>
			<path fill="#3F3D56" d="M116.9299927,50.4300041L116.9299927,50.4300041l-0.3699951,0.1600037l-0.0800018-0.3799973
				l0.5299988-0.2300034h0.4100037v1.7699966h-0.4900055V50.4300041z"/>
			<path fill="#3F3D56" d="M121.7700043,50.8699989c0,0.4800034-0.2100067,0.9199982-0.75,0.9199982
				c-0.5299988,0-0.7400055-0.4300003-0.7400055-0.9199982c0-0.4800034,0.2100067-0.9199982,0.7400055-0.9199982
				S121.7700043,50.3900032,121.7700043,50.8699989z M120.8000031,50.8699989c0,0.3799973,0.0899963,0.5500031,0.2400055,0.5500031
				c0.1399994,0,0.2299957-0.1699982,0.2299957-0.5500031c0-0.3700027-0.0899963-0.5400009-0.2299957-0.5400009
				C120.8899994,50.329998,120.8000031,50.5000038,120.8000031,50.8699989z"/>
			<path fill="#3F3D56" d="M125.7299957,50.8699989c0,0.4800034-0.2100067,0.9199982-0.75,0.9199982
				c-0.5299988,0-0.7400055-0.4300003-0.7400055-0.9199982c0-0.4800034,0.2100067-0.9199982,0.7400055-0.9199982
				C125.5200043,49.9600029,125.7299957,50.3900032,125.7299957,50.8699989z M124.7599945,50.8699989
				c0,0.3799973,0.0899963,0.5500031,0.2400055,0.5500031c0.1399994,0,0.2299957-0.1699982,0.2299957-0.5500031
				c0-0.3700027-0.0899963-0.5400009-0.2299957-0.5400009S124.7599945,50.5000038,124.7599945,50.8699989z"/>
			<path fill="#3F3D56" d="M116.9299927,53.7000008L116.9299927,53.7000008l-0.3699951,0.1600037l-0.0800018-0.3799973
				l0.5299988-0.2300034h0.4100037v1.7699966h-0.4900055V53.7000008z"/>
			<path fill="#3F3D56" d="M121.7700043,54.1400032c0,0.4800034-0.2100067,0.9199982-0.75,0.9199982
				c-0.5299988,0-0.7400055-0.4300003-0.7400055-0.9199982c0-0.4800034,0.2100067-0.9199982,0.7400055-0.9199982
				S121.7700043,53.6499977,121.7700043,54.1400032z M120.8000031,54.1400032c0,0.3799973,0.0899963,0.5500031,0.2400055,0.5500031
				c0.1399994,0,0.2299957-0.1699982,0.2299957-0.5500031c0-0.3700027-0.0899963-0.5400009-0.2299957-0.5400009
				C120.8899994,53.5900002,120.8000031,53.7599983,120.8000031,54.1400032z"/>
			<path fill="#3F3D56" d="M124.8499908,53.7000008L124.8499908,53.7000008l-0.3699951,0.1600037l-0.0800018-0.3799973
				l0.5299988-0.2300034h0.4100037v1.7699966h-0.4900055V53.7000008z"/>
		</g>
	</g>
</g>
<g id="g846" transform="translate(-808.56868,-436.71238)">
	<path id="path826" fill="#EE5B5B" d="M947.6400146,501.519989c-2.7000122,0.1900024-4.6199951,1.4799805-6.1199951,3.460022
		c-0.4199829,0.5599976-0.7299805,1.1799927-0.8699951,1.8699951c-0.2299805,1.1099854,0.4799805,1.7399902,1.5599976,1.3699951
		c0.6900024-0.2399902,1.25-0.7000122,1.7700195-1.2000122c1.0200195-0.9799805,1.8599854-2.1199951,2.7199707-3.2399902
		c0.6799927-0.8900146,1.3800049-1.75,2.289978-2.4099731c0.5700073-0.4099731,1.1799927-0.7199707,1.8800049-0.8499756
		c2.0800171-0.3699951,3.6900024,0.7600098,4,2.8599854c0.4400024,2.9199829-0.5900269,5.3900146-2.5599976,7.4400024
		c-2.3800049,2.4600525-5.2999878,3.52005-8.710022,2.7500305c-3.1099854-0.7000122-4.8499756-3.5100403-4.0700073-6.6000061
		c0.7700195-3.0800171,2.710022-5.1199951,5.8099976-5.9400024
		C946.0900269,500.8399963,946.8900146,500.8000183,947.6400146,501.519989L947.6400146,501.519989z M953.9400024,504.3799744
		c-0.0100098-0.0999756-0.0300293-0.3499756-0.0599976-0.5900269c-0.25-1.8499756-1.6900024-2.6699829-3.4199829-1.9500122
		c-0.9899902,0.4099731-1.6900024,1.1900024-2.3699951,1.9899902c-1.039978,1.2299805-1.9199829,2.5900269-3.0599976,3.7299805
		c-1.1199951,1.1300049-2.3400269,2.0900269-4.0900269,1.8499756c-0.4400024-0.0599976-0.3499756,0.1799927-0.2600098,0.4500122
		c0.3499756,0.960022,1.0100098,1.6400146,1.8900146,2.0999756c1.3200073,0.7000427,2.7199707,0.8100281,4.1799927,0.6000061
		C950.6199951,511.9999695,953.9500122,508.309967,953.9400024,504.3799744L953.9400024,504.3799744z"/>
	<path id="path828" fill="#EE5B5B" d="M938.8300171,508.9299622c-0.5700073,0.0100098-0.9299927-0.2299805-1.2600098-0.4699707
		c-1.7399902-1.2800293-2.7199707-2.9799805-2.75-5.1699829c-0.0100098-0.6300049,0.1900024-1.210022,0.9199829-1.5800171
		C935.7300415,504.5799866,936.4199829,507.0799866,938.8300171,508.9299622L938.8300171,508.9299622z"/>
	<path id="path830" fill="#EE5B5B" d="M939.8800049,500.559967c-1.210022,2.3200073-1.2000122,4.7299805-1.039978,7.1799927
		c-0.289978-0.0599976-0.289978-0.289978-0.3499756-0.460022c-0.5499878-1.7600098-0.7299805-3.539978-0.25-5.3400269
		C938.5,500.9999695,938.9199829,500.6600037,939.8800049,500.559967z"/>
	<path id="path832" fill="#EE5B5B" d="M952.5100098,504.519989c-0.0499878,0.460022-0.3300171,0.7299805-0.8300171,0.710022
		c-0.5-0.0200195-0.7800293-0.3400269-0.7600098-0.8200073s0.3400269-0.789978,0.8300171-0.7600098
		C952.2300415,503.6700134,952.5100098,503.9700012,952.5100098,504.519989z"/>
	<path id="path834" fill="#EE5B5B" d="M955.1900024,505.9999695c0.3499756-0.7399902,0.8800049-2.3499756,0.9299927-3.5499878
		c0.2399902,0.1199951,0.6900024,0.7700195,0.4899902,1.6199951c-0.4299927,1.8400269-2.6400146,5.6799927-5.4000244,7.7299805
		C951.6199951,510.9299622,954.7800293,507.6299744,955.1900024,505.9999695L955.1900024,505.9999695z"/>
	<path id="path836" fill="#EE5B5B" d="M955.5700073,506.1799622c0.5-1.1400146,1.5599976-2.8400269,0.5499878-3.7399902
		c0,0-0.0499878,0.2700195-0.2700195,0.8099976c-0.2700195,0.6500244-2.8900146,7.039978-7.4799805,8.8900452
		C949.460022,512.960022,954.7600098,507.6700134,955.5700073,506.1799622L955.5700073,506.1799622z"/>
	<path id="path838" fill="#EE5B5B" d="M947.960022,509.8600159"/>
	<path id="path840" fill="#EE5B5B" d="M947.960022,509.2200012"/>
	<path id="path842" fill="#EE5B5B" d="M955.0800171,504.6000061"/>
	<path id="path844" fill="#EE5B5B" d="M954.9700317,504.6600037c0.0599976,0.2800293,0.2299805,0.0200195,0.2299805,0.0200195
		s-0.0100098,0.5300293-0.1500244,0.5499878c-0.0599976,0.0100098-0.1199951-0.0599976-0.1300049-0.1699829
		C954.9000244,504.8600159,954.9500122,504.5699768,954.9700317,504.6600037z"/>
</g>
<path fill-rule="evenodd" clip-rule="evenodd" fill="#0092F6" d="M34.1199989,139.2200012
	c-1.8000031-2.3099976-4.4499969-3.7700043-7.3799973-3.7700043c-5.659996,0-9.7999992,5.2599945-9.7999992,10.9600067
	c0,3.9700012,2.6399994,6.9499969,5.5700035,6.9499969c0.2699966,0,0.5500031-0.0200043,0.8099976-0.0700073
	c-1.9599991-1.4299927-3.2200012-4.0399933-3.2200012-6.8699951c0-4.5099945,3.0500031-8.0200043,6.6399994-8.0200043
	c3.9199982,0,6.6399994,3.8899994,6.6399994,8.0200043c-0.0100021,3.0500031-1.0999985,6.0800018-3.0100021,8.3099976
	c-1.6699982,1.9499969-3.8300018,3.1900024-6.2099991,3.5800018c0,0,0.1999969,0.0099945,0.4599991,0.0099945
	c6.5800018,0,11.9100037-5.3300018,11.9100037-11.9100037C36.5300026,143.7100067,35.6300011,141.2200012,34.1199989,139.2200012z
	 M32.3100014,146.4100037c0-3.9700012-2.6399994-6.9499969-5.5699997-6.9499969
	c-0.2699966,0-0.5500031,0.0200043-0.8099976,0.0700073c1.9599991,1.4299927,3.2200012,4.0399933,3.2200012,6.8699951
	c0,4.5099945-3.0500031,8.0200043-6.6399994,8.0200043c-3.9199982,0-6.6399994-3.8899994-6.6399994-8.0200043
	c0.0099983-3.0500031,1.0999985-6.0800018,3.0099983-8.3099976c1.670002-1.9499969,3.829998-3.1900024,6.2100029-3.5800018
	c0,0-0.1999969-0.0099945-0.4599991-0.0099945c-6.5800018,0-11.9099998,5.3300018-11.9099998,11.9100037
	c0,2.6999969,0.9000015,5.1900024,2.420002,7.1900024c1.7999992,2.3099976,4.4500008,3.7700043,7.3799973,3.7700043
	C28.170002,157.3700104,32.3100014,152.1100006,32.3100014,146.4100037z"/>
<ellipse transform="matrix(0.9999853 -0.0054104 0.0054104 0.9999853 -0.7612985 0.9872646)" fill="#F29C5A" cx="182.0933228" cy="141.2028046" rx="10.7801504" ry="6.2300868"/>
<ellipse transform="matrix(0.9999853 -0.0054104 0.0054104 0.9999853 -0.7506942 0.9872358)" fill="#FFC91F" cx="182.0933228" cy="139.2428131" rx="10.7801504" ry="6.2300868"/>
<ellipse transform="matrix(0.9999853 -0.0054104 0.0054104 0.9999853 -0.7498821 0.9875041)" fill="#F29C5A" cx="182.1433105" cy="139.0928497" rx="8.3701162" ry="4.8300776"/>
<ellipse transform="matrix(0.9999853 -0.0054104 0.0054104 0.9999853 -0.7408612 1.0020339)" fill="#F29C5A" cx="184.8333282" cy="137.4328003" rx="10.7801504" ry="6.2300868"/>
<ellipse transform="matrix(0.9999853 -0.0054104 0.0054104 0.9999853 -0.7303104 1.0020056)" fill="#FFC91F" cx="184.833374" cy="135.4826965" rx="10.7801504" ry="6.2300868"/>
<ellipse transform="matrix(0.9999853 -0.0054104 0.0054104 0.9999853 -0.7294982 1.0022738)" fill="#F29C5A" cx="184.8833618" cy="135.3327179" rx="8.3701162" ry="4.8300776"/>
<ellipse transform="matrix(0.9999853 -0.0054104 0.0054104 0.9999853 -0.7089501 0.9778166)" fill="#F29C5A" cx="180.3732452" cy="131.5226288" rx="10.7801504" ry="6.2300868"/>
<ellipse transform="matrix(0.9999853 -0.0054104 0.0054104 0.9999853 -0.6984 0.9778423)" fill="#FFC91F" cx="180.3832855" cy="129.5726776" rx="10.7801504" ry="6.2300868"/>
<ellipse transform="matrix(0.9999853 -0.0054104 0.0054104 0.9999853 -0.6975877 0.9780566)" fill="#F29C5A" cx="180.4232941" cy="129.4226532" rx="8.3701162" ry="4.8300757"/>
<ellipse transform="matrix(0.99995 -0.01 0.01 0.99995 -1.338149 0.9982439)" fill="#F29C5A" cx="99.1528168" cy="134.3106689" rx="10.7794571" ry="6.2296906"/>
<ellipse transform="matrix(0.9999853 -0.0054104 0.0054104 0.9999853 -0.7100136 0.5447614)" fill="#FFC91F" cx="100.3320541" cy="131.5026703" rx="10.780158" ry="6.2300868"/>
<ellipse transform="matrix(0.9999853 -0.0054104 0.0054104 0.9999853 -0.7092016 0.5450301)" fill="#F29C5A" cx="100.3821335" cy="131.3527069" rx="8.3701162" ry="4.8300757"/>
<ellipse transform="matrix(0.99995 -0.01 0.01 0.99995 -1.2960812 0.9522349)" fill="#F29C5A" cx="94.5730743" cy="130.0809937" rx="10.7794571" ry="6.2296886"/>
<ellipse transform="matrix(0.9999853 -0.0054104 0.0054104 0.9999853 -0.6873561 0.5200824)" fill="#FFC91F" cx="95.7820282" cy="127.3025894" rx="10.780158" ry="6.2300811"/>
<ellipse transform="matrix(0.9999853 -0.0054104 0.0054104 0.9999853 -0.6864898 0.5202966)" fill="#F29C5A" cx="95.822052" cy="127.1425705" rx="8.3701162" ry="4.83007"/>
<ellipse transform="matrix(0.99995 -0.01 0.01 0.99995 -1.2279854 0.9915935)" fill="#F29C5A" cx="98.5428848" cy="123.2912674" rx="10.7794571" ry="6.2296829"/>
<ellipse transform="matrix(0.9999853 -0.0054104 0.0054104 0.9999853 -0.6507237 0.5413547)" fill="#FFC91F" cx="99.732048" cy="120.5425262" rx="10.780158" ry="6.2300868"/>
<ellipse transform="matrix(0.9999853 -0.0054104 0.0054104 0.9999853 -0.6499115 0.5416235)" fill="#F29C5A" cx="99.7821426" cy="120.3925476" rx="8.3701162" ry="4.83007"/>
<ellipse transform="matrix(0.9999853 -0.0054104 0.0054104 0.9999853 -0.5762365 0.9354177)" fill="#F29C5A" cx="172.6031189" cy="106.9722595" rx="10.7801504" ry="6.2300868"/>
<ellipse transform="matrix(0.9999853 -0.0054104 0.0054104 0.9999853 -0.5657408 0.9353353)" fill="#FFC91F" cx="172.5931244" cy="105.0323105" rx="10.7801504" ry="6.2300868"/>
<ellipse transform="matrix(0.9999853 -0.0054104 0.0054104 0.9999853 -0.5648741 0.9356036)" fill="#F29C5A" cx="172.643158" cy="104.8722534" rx="8.3701162" ry="4.83007"/>
<linearGradient id="SVGID_1_" gradientUnits="userSpaceOnUse" x1="-3171.5559082" y1="-1140.7888184" x2="-3185.8862305" y2="-1321.8052979" gradientTransform="matrix(-0.6993 0 0 -0.6993 -2076.1931152 -765.1027222)">
	<stop  offset="0" style="stop-color:#FFFFFF;stop-opacity:0"/>
	<stop  offset="0.95" style="stop-color:#FFFFFF"/>
</linearGradient>
<path fill="url(#SVGID_1_)" d="M116.8963318,120.6664658L84.1263275,5.2264729l111.3499908,7.4899979l-36.4299927,102.019989
	C145.1463318,140.5864716,116.8963318,120.6664658,116.8963318,120.6664658z"/>
<ellipse transform="matrix(0.9999853 -0.0054104 0.0054104 0.9999853 -0.8421179 0.6324451)" fill="#F29C5A" cx="116.4723969" cy="155.9630585" rx="10.780158" ry="6.2300868"/>
<ellipse transform="matrix(0.9999853 -0.0054104 0.0054104 0.9999853 -0.831567 0.6324162)" fill="#FFC91F" cx="116.4723434" cy="154.0129547" rx="10.780158" ry="6.2300868"/>
<ellipse transform="matrix(0.9999853 -0.0054104 0.0054104 0.9999853 -0.8307554 0.6326303)" fill="#F29C5A" cx="116.5123215" cy="153.8630371" rx="8.3701162" ry="4.8300776"/>
<linearGradient id="SVGID_2_" gradientUnits="userSpaceOnUse" x1="-3006.6523438" y1="-1281.6730957" x2="-3013.2121582" y2="-1364.5893555" gradientTransform="matrix(-0.6993 0 0 -0.6993 -2076.1931152 -765.1027222)">
	<stop  offset="0" style="stop-color:#FFFFFF;stop-opacity:0"/>
	<stop  offset="0.66" style="stop-color:#FFFFFF"/>
</linearGradient>
<path fill="url(#SVGID_2_)" d="M15.0499992,171.4900055L0,118.5799942l51.0000038,3.4700012l-16.6600037,46.7300034
	C27.9799995,180.6200104,15.0499992,171.4900055,15.0499992,171.4900055z"/>
<linearGradient id="SVGID_3_" gradientUnits="userSpaceOnUse" x1="-3408.0615234" y1="-1187.9593506" x2="-3414.621582" y2="-1270.8756104" gradientTransform="matrix(-0.6993 0 0 -0.6993 -2076.1931152 -765.1027222)">
	<stop  offset="0" style="stop-color:#FFFFFF;stop-opacity:0"/>
	<stop  offset="0.53" style="stop-color:#FFFFFF"/>
</linearGradient>
<path fill="url(#SVGID_3_)" d="M295.75,105.9499893l-15.0499878-52.9099998l51.0100098,3.4700012l-16.6600037,46.7199974
	C308.6800232,115.0799942,295.75,105.9499893,295.75,105.9499893z"/>
<g>
	<path fill="#70CC40" d="M243.4099884,70.3699951c0,10.659996-9.8699951,19.2999954-12.2099915,19.2999954
		s-12.2099915-8.6399994-12.2099915-19.3000031c0,0,5.4700012-4.1399994,12.2099915-4.1399994
		C237.9399872,66.2299957,243.4099884,70.3699951,243.4099884,70.3699951z"/>
	<path fill="#093F68" d="M231.1999969,90.0100021c-2.4599915,0-12.5599976-8.8300018-12.5599976-19.6600037
		c0-0.1100006,0.0499878-0.2200012,0.1400146-0.2900009c0.230011-0.1699982,5.6300049-4.1999969,12.4100037-4.1999969
		s12.1900024,4.0400009,12.4100037,4.1999969c0.0899963,0.0699997,0.1400146,0.1800003,0.1400146,0.2900009
		C243.7599945,81.1800003,233.6500092,90.0100021,231.1999969,90.0100021z M219.3400116,70.5399933
		c0.1199951,10.1200027,9.6300049,18.7499924,11.8599854,18.7499924c2.2399902,0,11.7600098-8.6300049,11.8599854-18.75
		c-0.8999939-0.6299973-5.9100037-3.9499969-11.8599854-3.9499969
		C225.2499847,66.5899963,220.2400055,69.8999939,219.3400116,70.5399933L219.3400116,70.5399933z"/>
	<path fill="#FFFFFF" d="M229.0299835,82.2499924l-3.6000061-3.7400055c-0.230011-0.2400055-0.230011-0.6199951,0-0.8600006
		l1.1300049-1.1699982c0.230011-0.2399979,0.6000061-0.2399979,0.8299866,0l1.8099976,1.8800049
		c0.1499939,0.1499939,0.3800049,0.1499939,0.5299988,0l0,0l5.9200134-6.1299973
		c0.3299866-0.3399963,0.8699951-0.3399963,1.2000122,0l0,0l0.75,0.7799988
		c0.3299866,0.3399963,0.3299866,0.9000015,0.0100098,1.2399979c0,0,0,0-0.0100098,0.0100021l-7.6900024,7.9800034
		C229.6699982,82.4999924,229.2799835,82.4999924,229.0299835,82.2499924z"/>
</g>
<g>
	<ellipse fill="#AD7972" cx="63.6899986" cy="183.8000031" rx="9.3199968" ry="13.5299988"/>
	<path fill="#093F68" d="M53.7999992,183.8000031c0-7.6199951,4.4400024-13.8099976,9.9199982-13.8099976
		s9.920002,6.1999969,9.920002,13.8099976s-4.4400024,13.8099976-9.920002,13.8099976
		S53.7999992,191.4300079,53.7999992,183.8000031z M72.4400024,183.8000031c0-7.0500031-3.9199982-12.7899933-8.760006-12.7899933
		c-4.8399963,0-8.7600021,5.7400055-8.7600021,12.7899933s3.9199982,12.7899933,8.7600021,12.7899933
		C68.5200043,196.5900116,72.4400024,190.8600006,72.4400024,183.8000031L72.4400024,183.8000031z"/>
	<path fill="#093F68" d="M60.2800026,176.1200104c0.0699997-1.9600067,0.8700027-3.8500061,2.2799988-5.3699951
		c0.2099991-0.2100067,0.5800018-0.2299957,0.8199997-0.0500031s0.2699966,0.5,0.0599976,0.7200012
		c-0.1600037,0.1600037-3.8300018,3.9100037-0.8199997,8.1000061c6.579998,9.1499939,4.3399925,15.1100006,3.0700035,17.2400055
		c-0.1500092,0.25-0.5,0.3500061-0.7900085,0.2200012c-0.2899933-0.1300049-0.3999939-0.4400024-0.25-0.6900024l0,0
		c0.9199982-1.5299988,3.4199982-7.2599945-3.0199928-16.2299957
		C60.7599983,178.8800049,60.2899971,177.5100098,60.2800026,176.1200104z"/>
	
		<linearGradient id="SVGID_4_" gradientUnits="userSpaceOnUse" x1="-2845.095459" y1="1072.7900391" x2="-2845.095459" y2="1007.2443848" gradientTransform="matrix(-1 0 0 1 -2781.4052734 -875.460022)">
		<stop  offset="0" style="stop-color:#010101;stop-opacity:0"/>
		<stop  offset="1" style="stop-color:#010101"/>
	</linearGradient>
	<ellipse fill="url(#SVGID_4_)" cx="63.6899986" cy="183.8000031" rx="9.3199968" ry="13.5299988"/>
</g>
<linearGradient id="SVGID_5_" gradientUnits="userSpaceOnUse" x1="-3301.9909668" y1="-1183.467041" x2="-3308.5507812" y2="-1266.3831787" gradientTransform="matrix(-0.6993 0 0 -0.6993 -2076.1931152 -765.1027222)">
	<stop  offset="0" style="stop-color:#FFFFFF;stop-opacity:0"/>
	<stop  offset="0.38" style="stop-color:#FFFFFF;stop-opacity:0.67"/>
	<stop  offset="0.95" style="stop-color:#FFFFFF"/>
</linearGradient>
<path fill="url(#SVGID_5_)" d="M221.5500031,102.7799911l-15.0200043-52.8800011l51.0000305,3.4700012l-16.6600189,46.7199974
	C234.5099945,111.9399948,221.5500031,102.7799911,221.5500031,102.7799911z"/>
<g>
	
		<linearGradient id="SVGID_6_" gradientUnits="userSpaceOnUse" x1="-3060.9035645" y1="-1318.2994385" x2="-3067.4633789" y2="-1401.225708" gradientTransform="matrix(-0.6993 0 0 -0.6993 -2076.1931152 -765.1027222)">
		<stop  offset="0" style="stop-color:#FFFFFF;stop-opacity:0"/>
		<stop  offset="0.95" style="stop-color:#FFFFFF"/>
	</linearGradient>
	<path fill="url(#SVGID_6_)" d="M54.0200005,210.5600128l-15.0199966-52.8800049l51.0099907,3.4700012l-16.6900024,46.7099915
		C66.9600067,219.6999969,54.0200005,210.5600128,54.0200005,210.5600128z"/>
</g>
<path fill="#D35B38" d="M196.75,23.5700035c0.5500031,0,1.0099945-0.3600006,1.1799927-0.8499985H191.75
	c0.1600037,0.4899979,0.6300049,0.8499985,1.1799927,0.8499985H196.75z"/>
<path fill="#4D3D36" d="M198.7799988,22.329998v-7.0899963c0-0.2200012-0.1799927-0.3899994-0.3899994-0.3899994
	c-0.2200012,0-0.3899994,0.1800003-0.3899994,0.3899994v6.6999969h-1.5800018v-6.6999969
	c0-0.2200012-0.1799927-0.3899994-0.3899994-0.3899994s-0.3899994,0.1800003-0.3899994,0.3899994v6.6999969h-1.5800018v-6.6999969
	c0-0.2200012-0.1799927-0.3899994-0.3899994-0.3899994s-0.3899994,0.1800003-0.3899994,0.3899994v6.6999969h-1.5800018v-6.6999969
	c0-0.2200012-0.1799927-0.3899994-0.3899994-0.3899994c-0.2200012,0-0.3899994,0.1800003-0.3899994,0.3899994v7.0899963
	c0,1.1200027,0.9100037,2.0199966,2.0200043,2.0199966h1.5200043V38.989994c0,0.2200012,0.1799927,0.3899994,0.3899994,0.3899994
	s0.3899994-0.1800003,0.3899994-0.3899994V24.3599968h1.5200043
	C197.8699951,24.3599968,198.7799988,23.4500008,198.7799988,22.329998z M191.75,22.7299995h6.1799927
	c-0.1600037,0.4899979-0.6300049,0.8499985-1.1799927,0.8499985h-3.8300018
	C192.3799896,23.5700035,191.9100037,23.2199974,191.75,22.7299995z"/>
<path fill="#4D3D36" d="M209.0800018,36.4399986h-3.1999969c-0.2200012,0-0.3899994,0.1800003-0.3899994,0.3899994
	c0,0.2200012,0.1799927,0.3899994,0.3899994,0.3899994h3.1999969c0.2200012,0,0.3899994-0.1800003,0.3899994-0.3899994
	C209.4799957,36.6199989,209.3000031,36.4399986,209.0800018,36.4399986z"/>
<path fill="#4D3D36" d="M204.3199921,36.4399986h-1.0399933c-0.2200012,0-0.3899994,0.1800003-0.3899994,0.3899994
	c0,0.2200012,0.1799927,0.3899994,0.3899994,0.3899994h1.0399933c0.2200012,0,0.3899994-0.1800003,0.3899994-0.3899994
	S204.5399933,36.4399986,204.3199921,36.4399986z"/>
<linearGradient id="SVGID_7_" gradientUnits="userSpaceOnUse" x1="-3263.2302246" y1="-1112.1057129" x2="-3269.7900391" y2="-1195.0318604" gradientTransform="matrix(-0.6993 0 0 -0.6993 -2076.1931152 -765.1027222)">
	<stop  offset="0" style="stop-color:#FFFFFF;stop-opacity:0"/>
	<stop  offset="0.58" style="stop-color:#FFFFFF"/>
</linearGradient>
<path fill="url(#SVGID_7_)" d="M194.4400024,52.8800011L179.4199982,0l51.0100098,3.4700012l-16.6900024,46.7299995
	C207.3799896,62.0300026,194.4400024,52.8800011,194.4400024,52.8800011z"/>
<path opacity="0.7" fill="#FFFFFF" enable-background="new    " d="M468.9816895,31.1949883l-30.2700195,17.4799805
	l23.1600342,13.3700562l-25.2999878,14.6099815L385.501709,47.16502l-44.0300293,25.4199791l34.4500122,19.8800049
	l-24.7000122,14.2700195L329.251709,94.0450211l-25.4917603,14.7165527
	c0.4115601,0.4255981,0.7931519,0.8207397,1.1308594,1.1699219l24.3408813-14.0565186l21.9799805,12.6900024l27.8800049-16.0999756
	l-34.4400024-19.8900146l40.8300171-23.5700035l51.0800171,29.4799767l28.4799805-16.4399376L441.8817139,48.66502
	l27.0899658-15.6400146l12.2800293,7.0899658l1.5899658-0.9199829L468.9816895,31.1949883z"/>
<g>
	<g>
		<path fill="#70B2DE" d="M14.6346207,176.9707489c0.0899963-0.5400085,0-7.0400085,0-7.0400085
			c0.4899979-0.7000122,1.8899994,4.1000061,2.8700027,3.5400085c3.8899994-2.2099915,10.1599998-2.230011,14.0200005,0
			c1.1999969,0.6900024,2.9700012-2.9899902,2.7799988-3.9599915c-0.0500031-0.2600098,0.1000061,7.4500122,0.1000061,8
			c-0.0100098,1.4599915-0.9900055,2.9299927-2.9199982,4.0499878c-3.8899994,2.2099915-10.1599998,2.230011-14.0200005,0
			C15.2946167,180.3107452,14.3446198,178.6207428,14.6346207,176.9707489z"/>
		
			<linearGradient id="SVGID_8_" gradientUnits="userSpaceOnUse" x1="-3005.9460449" y1="-1329.2161865" x2="-2998.2150879" y2="-1383.282959" gradientTransform="matrix(-0.6993 0 0 -0.6993 -2076.1931152 -765.1027222)">
			<stop  offset="0" style="stop-color:#010101;stop-opacity:0"/>
			<stop  offset="0.95" style="stop-color:#010101"/>
		</linearGradient>
		<path fill="url(#SVGID_8_)" d="M14.6346207,176.9707489c0.0899963-0.5400085,0-7.0400085,0-7.0400085
			c0.4899979-0.7000122,1.8899994,4.1000061,2.8700027,3.5400085c3.8899994-2.2099915,10.1599998-2.230011,14.0200005,0
			c1.1999969,0.6900024,2.9700012-2.9899902,2.7799988-3.9599915c-0.0500031-0.2600098,0.1000061,7.4500122,0.1000061,8
			c-0.0100098,1.4599915-0.9900055,2.9299927-2.9199982,4.0499878c-3.8899994,2.2099915-10.1599998,2.230011-14.0200005,0
			C15.2946167,180.3107452,14.3446198,178.6207428,14.6346207,176.9707489z"/>
		
			<ellipse transform="matrix(0.9999853 -0.0054104 0.0054104 0.9999853 -0.920516 0.1350797)" fill="#70B2DE" cx="24.5062294" cy="170.2045135" rx="9.9101477" ry="5.7300868"/>
		<path fill="#70B2DE" d="M17.4646225,178.2307281c3.8600006,2.2600098,10.1299934,2.2399902,14.0199928,0
			c1.8099976-1.0400085,2.7799988-2.3900146,2.9100037-3.7799988c0.0899963,1.5400085-0.8799896,3.0799866-2.9100037,4.25
			c-3.8899994,2.2099915-10.1599998,2.2200012-14.0200005,0c-2.0100021-1.1700134-2.9599991-2.7099915-2.8700027-4.230011
			C14.724617,175.840744,15.6746216,177.1807404,17.4646225,178.2307281z"/>
	</g>
	
		<linearGradient id="SVGID_9_" gradientUnits="userSpaceOnUse" x1="-3003.1989746" y1="-1321.4871826" x2="-3006.6027832" y2="-1394.1816406" gradientTransform="matrix(-0.6993 0 0 -0.6993 -2076.1789551 -765.0982056)">
		<stop  offset="0" style="stop-color:#FFFFFF;stop-opacity:0"/>
		<stop  offset="0.95" style="stop-color:#FFFFFF"/>
	</linearGradient>
	<path fill="url(#SVGID_9_)" d="M24.5046234,174.5707245c-4.2200012,0.019989-7.6500015-1.9299927-7.6699982-4.3699951
		c-0.0100021-2.4400024,3.4000015-4.4299927,7.6200027-4.4600067s7.6499977,1.9300079,7.670002,4.3700104
		C32.1346245,172.5507355,28.7246208,174.5407257,24.5046234,174.5707245z"/>
</g>
<g>
	<g>
		<path fill="#70B2DE" d="M53.8146172,215.5231018c0.0899963-0.5400085,0-7.0400085,0-7.0400085
			c0.4899979-0.7000122,1.8899994,4.1000061,2.8700027,3.5400085c3.8899994-2.2099915,10.1599998-2.230011,14.0200005,0
			c1.1999969,0.6900024,2.9700012-2.9899902,2.7799988-3.9599915c-0.0500031-0.2600098,0.1000061,7.4500122,0.1000061,8
			c-0.0100098,1.4599915-0.9900055,2.9299927-2.9199982,4.0499878c-3.8899994,2.2099915-10.1599998,2.230011-14.0200005,0
			C54.4746132,218.8630981,53.5246162,217.1730957,53.8146172,215.5231018z"/>
		
			<linearGradient id="SVGID_10_" gradientUnits="userSpaceOnUse" x1="-3061.9736328" y1="-1384.3460693" x2="-3054.2426758" y2="-1438.4128418" gradientTransform="matrix(-0.6993 0 0 -0.6993 -2076.1931152 -765.1027222)">
			<stop  offset="0" style="stop-color:#010101;stop-opacity:0"/>
			<stop  offset="0.95" style="stop-color:#010101"/>
		</linearGradient>
		<path fill="url(#SVGID_10_)" d="M53.8146172,215.5231018c0.0899963-0.5400085,0-7.0400085,0-7.0400085
			c0.4899979-0.7000122,1.8899994,4.1000061,2.8700027,3.5400085c3.8899994-2.2099915,10.1599998-2.230011,14.0200005,0
			c1.1999969,0.6900024,2.9700012-2.9899902,2.7799988-3.9599915c-0.0500031-0.2600098,0.1000061,7.4500122,0.1000061,8
			c-0.0100098,1.4599915-0.9900055,2.9299927-2.9199982,4.0499878c-3.8899994,2.2099915-10.1599998,2.230011-14.0200005,0
			C54.4746132,218.8630981,53.5246162,217.1730957,53.8146172,215.5231018z"/>
		
			<ellipse transform="matrix(0.9999853 -0.0054104 0.0054104 0.9999853 -1.1285261 0.3476234)" fill="#70B2DE" cx="63.6862259" cy="208.7568665" rx="9.9101477" ry="5.7300868"/>
		<path fill="#70B2DE" d="M56.644619,216.7830811c3.8600006,2.2600098,10.1299934,2.2399902,14.0199928,0
			c1.8099976-1.0400085,2.7799988-2.3900146,2.9100037-3.7799988c0.0899963,1.5400085-0.8799896,3.0799866-2.9100037,4.25
			c-3.8899994,2.2099915-10.1599998,2.2200012-14.0200005,0c-2.0100021-1.1700134-2.9599991-2.7099915-2.8700027-4.230011
			C53.9046135,214.3930969,54.8546181,215.7330933,56.644619,216.7830811z"/>
	</g>
	
		<linearGradient id="SVGID_11_" gradientUnits="userSpaceOnUse" x1="-3059.2263184" y1="-1376.6170654" x2="-3062.6303711" y2="-1449.3115234" gradientTransform="matrix(-0.6993 0 0 -0.6993 -2076.1789551 -765.0982056)">
		<stop  offset="0" style="stop-color:#FFFFFF;stop-opacity:0"/>
		<stop  offset="0.95" style="stop-color:#FFFFFF"/>
	</linearGradient>
	<path fill="url(#SVGID_11_)" d="M63.6846199,213.1230774c-4.2200012,0.019989-7.6500015-1.9299927-7.6699982-4.3699951
		c-0.0100021-2.4400024,3.4000015-4.4299927,7.6200027-4.4600067s7.6499977,1.9300079,7.670002,4.3700104
		C71.314621,211.1030884,67.9046173,213.0930786,63.6846199,213.1230774z"/>
</g>
<g>
	<path fill="#70B2DE" d="M295.1420288,110.7649994c0.1000061-0.5399933,0-7.0399933,0-7.0399933
		c0.4899902-0.6999969,1.8999939,4.1000061,2.8800049,3.5299988c3.8800049-2.2200012,10.1600037-2.2299957,14.019989,0
		c1.2000122,0.6900024,2.9700012-2.9900055,2.7799988-3.9600067c-0.0599976-0.2599945,0.1000061,7.4499969,0.1000061,8
		c-0.0100098,1.4600067-0.9899902,2.9299927-2.9299927,4.0500031c-3.8800049,2.2200012-10.1600037,2.2299957-14.0100098,0
		C295.8120422,114.1049957,294.8820496,112.4149933,295.1420288,110.7649994z"/>
	
		<linearGradient id="SVGID_12_" gradientUnits="userSpaceOnUse" x1="-3407.0737305" y1="-1234.5556641" x2="-3399.3527832" y2="-1288.6224365" gradientTransform="matrix(-0.6993 0 0 -0.6993 -2076.1931152 -765.1027222)">
		<stop  offset="0" style="stop-color:#010101;stop-opacity:0"/>
		<stop  offset="0.95" style="stop-color:#010101"/>
	</linearGradient>
	<path fill="url(#SVGID_12_)" d="M295.1420288,110.7649994c0.1000061-0.5399933,0-7.0399933,0-7.0399933
		c0.4899902-0.6999969,1.8999939,4.1000061,2.8800049,3.5299988c3.8800049-2.2200012,10.1600037-2.2299957,14.019989,0
		c1.2000122,0.6900024,2.9700012-2.9900055,2.7799988-3.9600067c-0.0599976-0.2599945,0.1000061,7.4499969,0.1000061,8
		c-0.0100098,1.4600067-0.9899902,2.9299927-2.9299927,4.0500031c-3.8800049,2.2200012-10.1600037,2.2299957-14.0100098,0
		C295.8120422,114.1049957,294.8820496,112.4149933,295.1420288,110.7649994z"/>
	
		<ellipse transform="matrix(0.9999853 -0.0054104 0.0054104 0.9999853 -0.5582026 1.6517869)" fill="#70B2DE" cx="305.0171204" cy="103.9972839" rx="9.9101553" ry="5.7300792"/>
	<path fill="#70B2DE" d="M297.9820251,112.0449982c3.8599854,2.2200012,10.1300049,2.2100067,14.0100098-0.0299988
		c1.8200073-1.0299988,2.7900085-2.3800049,2.9200134-3.7700043c0.0899963,1.5299988-0.8800049,3.0800018-2.9200134,4.25
		c-3.8800049,2.2100067-10.1499939,2.2299957-14.0100098,0c-2.0100098-1.1600037-2.9700012-2.7100067-2.8800049-4.2299957
		C295.2220459,109.6349945,296.1820374,110.9749908,297.9820251,112.0449982z"/>
	
		<linearGradient id="SVGID_13_" gradientUnits="userSpaceOnUse" x1="-3404.2744141" y1="-1226.7705078" x2="-3407.6882324" y2="-1299.4648438" gradientTransform="matrix(-0.6993 0 0 -0.6993 -2076.1845703 -765.1066284)">
		<stop  offset="0" style="stop-color:#FFFFFF;stop-opacity:0"/>
		<stop  offset="0.95" style="stop-color:#FFFFFF"/>
	</linearGradient>
	<path fill="url(#SVGID_13_)" d="M304.9720459,108.3150024c-4.2200012,0.0200043-7.6499939-1.9299927-7.6700134-4.3699951
		c-0.0100098-2.4400024,3.3999939-4.4299927,7.6199951-4.4600067c4.2200012-0.0200043,7.6499939,1.9299927,7.6700134,4.3699951
		C312.61203,106.2949982,309.1920471,108.2949982,304.9720459,108.3150024z"/>
	<g>
		<path fill="#70B2DE" d="M221.382019,108.7249908c0.1000061-0.5399933,0-7.0399933,0-7.0399933
			c0.4899902-0.6900024,1.8999939,4.1000061,2.8800049,3.5399933c3.8800049-2.2100067,10.1499939-2.2299957,14.0100098,0
			c1.2000122,0.6999969,2.9700012-2.9900055,2.7799988-3.9600067c-0.0599976-0.2599945,0.1000061,7.4499969,0.1000061,8.0099945
			c-0.0100098,1.4600067-0.9899902,2.9299927-2.9299927,4.0500031c-3.8800049,2.2100067-10.1600037,2.2299957-14.019989,0
			C222.0119934,112.0650024,221.0920105,110.3649902,221.382019,108.7249908z"/>
		
			<linearGradient id="SVGID_14_" gradientUnits="userSpaceOnUse" x1="-3301.5935059" y1="-1231.62854" x2="-3293.8725586" y2="-1285.6854248" gradientTransform="matrix(-0.6993 0 0 -0.6993 -2076.1931152 -765.1027222)">
			<stop  offset="0" style="stop-color:#010101;stop-opacity:0"/>
			<stop  offset="0.95" style="stop-color:#010101"/>
		</linearGradient>
		<path fill="url(#SVGID_14_)" d="M221.382019,108.7249908c0.1000061-0.5399933,0-7.0399933,0-7.0399933
			c0.4899902-0.6900024,1.8999939,4.1000061,2.8800049,3.5399933c3.8800049-2.2100067,10.1499939-2.2299957,14.0100098,0
			c1.2000122,0.6999969,2.9700012-2.9900055,2.7799988-3.9600067c-0.0599976-0.2599945,0.1000061,7.4499969,0.1000061,8.0099945
			c-0.0100098,1.4600067-0.9899902,2.9299927-2.9299927,4.0500031c-3.8800049,2.2100067-10.1600037,2.2299957-14.019989,0
			C222.0119934,112.0650024,221.0920105,110.3649902,221.382019,108.7249908z"/>
		<path fill="#70B2DE" d="M224.1920166,109.9949951c3.8599854,2.2200012,10.1300049,2.2100067,14.0100098-0.0299988
			c1.8200073-1.0399933,2.7900085-2.3800049,2.9200134-3.7700043c0.0899963,1.5299988-0.8800049,3.0800018-2.9200134,4.25
			c-3.8800049,2.2100067-10.1499939,2.2200012-14.0100098,0c-2.0100098-1.1600037-2.9700012-2.7100067-2.8800049-4.2299957
			C221.4519958,107.5849915,222.4120178,108.9349976,224.1920166,109.9949951z"/>
		
			<ellipse transform="matrix(0.9999853 -0.0054104 0.0054104 0.9999853 -0.5481907 1.2526258)" fill="#70B2DE" cx="231.2460327" cy="101.9472046" rx="9.9101553" ry="5.7300792"/>
		
			<linearGradient id="SVGID_15_" gradientUnits="userSpaceOnUse" x1="-3307.4365234" y1="-1218.3881836" x2="-3310.840332" y2="-1291.0726318" gradientTransform="matrix(-0.6994 -0.0032096 0.0032096 -0.6994 -2078.6286621 -772.6177979)">
			<stop  offset="0" style="stop-color:#FFFFFF;stop-opacity:0"/>
			<stop  offset="0.95" style="stop-color:#FFFFFF"/>
		</linearGradient>
		<path fill="url(#SVGID_15_)" d="M231.2019958,106.2749939c-4.2200012,0.0200043-7.6499939-1.9299927-7.6700134-4.3699951
			c-0.0100098-2.4400024,3.3999939-4.4299927,7.6199951-4.4600067s7.6499939,1.9299927,7.6700134,4.3699951
			C238.8320007,104.2549896,235.4219971,106.2549896,231.2019958,106.2749939z"/>
	</g>
	<path fill="#70B2DE" d="M194.2320099,57.4849968c0.0899963-0.5400009,0-7.0400009,0-7.0400009
		c0.4900055-0.6900024,1.8899994,4.0999985,2.8699951,3.5400009c3.8899994-2.2099991,10.1600037-2.2300034,14.0200043,0
		c1.2000122,0.6900024,2.9700012-2.9899979,2.7799988-3.9599991c-0.0599976-0.2600021,0.1000061,7.4499969,0.1000061,8
		c-0.0100098,1.4599991-0.9899902,2.9400024-2.9299927,4.0500031c-3.8800049,2.2099953-10.1499939,2.2299995-14.0099945,0
		C194.8919983,60.8250008,193.9520111,59.1349983,194.2320099,57.4849968z"/>
	
		<linearGradient id="SVGID_16_" gradientUnits="userSpaceOnUse" x1="-3262.7648926" y1="-1158.3763428" x2="-3255.0437012" y2="-1212.4331055" gradientTransform="matrix(-0.6993 0 0 -0.6993 -2076.1931152 -765.1027222)">
		<stop  offset="0" style="stop-color:#010101;stop-opacity:0"/>
		<stop  offset="0.95" style="stop-color:#010101"/>
	</linearGradient>
	<path fill="url(#SVGID_16_)" d="M194.2320099,57.4849968c0.0899963-0.5400009,0-7.0400009,0-7.0400009
		c0.4900055-0.6900024,1.8899994,4.0999985,2.8699951,3.5400009c3.8899994-2.2099991,10.1600037-2.2300034,14.0200043,0
		c1.2000122,0.6900024,2.9700012-2.9899979,2.7799988-3.9599991c-0.0599976-0.2600021,0.1000061,7.4499969,0.1000061,8
		c-0.0100098,1.4599991-0.9899902,2.9400024-2.9299927,4.0500031c-3.8800049,2.2099953-10.1499939,2.2299995-14.0099945,0
		C194.8919983,60.8250008,193.9520111,59.1349983,194.2320099,57.4849968z"/>
	
		<ellipse transform="matrix(0.9999853 -0.0054104 0.0054104 0.9999853 -0.2714094 1.1049815)" fill="#70B2DE" cx="204.0956573" cy="50.716507" rx="9.91014" ry="5.7300868"/>
	<path fill="#70B2DE" d="M197.0620117,58.7749977c3.8600006,2.2200012,10.1300049,2.2099991,14.0200043-0.0299988
		c1.8100128-1.0400009,2.780014-2.3799973,2.9099884-3.7699966c0.0899963,1.5299988-0.8800049,3.0699997-2.9100037,4.25
		c-3.8899994,2.2099991-10.1600037,2.2200012-14.0200043,0c-2.0099945-1.1699982-2.9600067-2.7099991-2.8699951-4.2300034
		C194.302002,56.3549995,195.2720032,57.6949959,197.0620117,58.7749977z"/>
	
		<linearGradient id="SVGID_17_" gradientUnits="userSpaceOnUse" x1="-3259.9838867" y1="-1150.5828857" x2="-3263.3879395" y2="-1223.2772217" gradientTransform="matrix(-0.6993 0 0 -0.6993 -2076.1906738 -765.0977783)">
		<stop  offset="0" style="stop-color:#FFFFFF;stop-opacity:0"/>
		<stop  offset="0.95" style="stop-color:#FFFFFF"/>
	</linearGradient>
	<path fill="url(#SVGID_17_)" d="M204.0620117,55.045002c-4.2200012,0.0199966-7.6499939-1.9300003-7.6699982-4.3700027
		c-0.0099945-2.4400024,3.3999939-4.4300003,7.6199951-4.4599991c4.2200012-0.0199966,7.6499939,1.9300003,7.6699982,4.3700027
		C211.6920013,53.0249977,208.2819977,55.0249977,204.0620117,55.045002z"/>
</g>
<g>
	<path fill="#F29C5A" d="M116.4194336,149.9890289"/>
	<path fill="#70B2DE" d="M116.3007355,132.035965c0.1900024-1.1699982,0-15.140007,0-15.140007
		c1.0500031-1.4700012,4.1000061,8.8500061,6.1799927,7.6300049c8.3500061-4.8200073,21.8399963-4.8399963,30.1399994-0.0599976
		c2.5899963,1.4900055,6.3899994-6.4400024,5.9799957-8.5200043c-0.1199951-0.5700073,0.2200012,16.0300064,0.2200012,17.2100143
		c-0.0399933,3.1600037-2.1199951,6.3000031-6.2899933,8.7100067c-8.3500061,4.8200073-21.8399963,4.8399963-30.1399994,0.0599976
		C117.7207336,139.2259674,115.7007446,135.5959778,116.3007355,132.035965z"/>
	
		<linearGradient id="SVGID_18_" gradientUnits="userSpaceOnUse" x1="-3169.7880859" y1="-1244.3737793" x2="-3153.1850586" y2="-1360.6053467" gradientTransform="matrix(-0.6993 0 0 -0.6993 -2076.1931152 -765.1027222)">
		<stop  offset="0" style="stop-color:#010101;stop-opacity:0"/>
		<stop  offset="0.95" style="stop-color:#010101"/>
	</linearGradient>
	<path fill="url(#SVGID_18_)" d="M116.3007355,132.035965c0.1900024-1.1699982,0-15.140007,0-15.140007
		c1.0500031-1.4700012,4.1000061,8.8500061,6.1799927,7.6300049c8.3500061-4.8200073,21.8399963-4.8399963,30.1399994-0.0599976
		c2.5899963,1.4900055,6.3899994-6.4400024,5.9799957-8.5200043c-0.1199951-0.5700073,0.2200012,16.0300064,0.2200012,17.2100143
		c-0.0399933,3.1600037-2.1199951,6.3000031-6.2899933,8.7100067c-8.3500061,4.8200073-21.8399963,4.8399963-30.1399994,0.0599976
		C117.7207336,139.2259674,115.7007446,135.5959778,116.3007355,132.035965z"/>
	
		<ellipse transform="matrix(0.9999853 -0.0054104 0.0054104 0.9999853 -0.6336445 0.7456648)" fill="#70B2DE" cx="137.5033722" cy="117.4884567" rx="21.3103027" ry="12.310174"/>
	<path fill="#70B2DE" d="M122.3907471,134.7559662c8.3000031,4.7899933,21.8099976,4.7899933,30.1399994-0.0700073
		c3.8899994-2.2299957,5.9799957-5.1399994,6.25-8.1100082c0.1999969,3.3000107-1.8800049,6.6300125-6.25,9.1500015
		c-8.3500061,4.8000031-21.8099976,4.8300018-30.1399994,0.0500031c-4.3200073-2.5-6.3800049-5.8200073-6.1799927-9.1000137
		C116.4507446,129.6159668,118.540741,132.5059662,122.3907471,134.7559662z"/>
	
		<linearGradient id="SVGID_19_" gradientUnits="userSpaceOnUse" x1="-3163.9741211" y1="-1227.8652344" x2="-3171.2910156" y2="-1384.1199951" gradientTransform="matrix(-0.6993 0 0 -0.6993 -2076.1789551 -765.0982056)">
		<stop  offset="0" style="stop-color:#FFFFFF;stop-opacity:0"/>
		<stop  offset="0.95" style="stop-color:#FFFFFF"/>
	</linearGradient>
	<path fill="url(#SVGID_19_)" d="M137.562973,126.9785919c-9.0720673,0.0429688-16.4458084-4.148468-16.4887924-9.3931808
		c-0.0215073-5.2447205,7.3092422-9.5221481,16.3813095-9.5866623s16.4458008,4.1484985,16.4888,9.393219
		C153.9657745,122.6366806,146.635025,126.9141083,137.562973,126.9785919z"/>
</g>
</svg>
