<?xml version="1.0" encoding="utf-8"?>
<!-- Generator: Adobe Illustrator 25.0.1, SVG Export Plug-In . SVG Version: 6.00 Build 0)  -->
<svg version="1.1"
	 id="Layer_1" inkscape:export-filename="/Users/nhynes/favicon.png" inkscape:export-xdpi="21.23" inkscape:export-ydpi="21.23" inkscape:version="1.1 (c4e8f9e, 2021-05-24)" sodipodi:docname="dv6y2019206362019-10-294988881Bird Coffee Bean Logo.svg" xmlns:inkscape="http://www.inkscape.org/namespaces/inkscape" xmlns:sodipodi="http://sodipodi.sourceforge.net/DTD/sodipodi-0.dtd" xmlns:svg="http://www.w3.org/2000/svg"
	 xmlns="http://www.w3.org/2000/svg" xmlns:xlink="http://www.w3.org/1999/xlink" x="0px" y="0px"
	 viewBox="0 0 146.7810211 146.7810211" enable-background="new 0 0 146.7810211 146.7810211" xml:space="preserve">
<sodipodi:namedview  bordercolor="#666666" borderopacity="1.0" fit-margin-bottom="0" fit-margin-left="0" fit-margin-right="0" fit-margin-top="0" id="namedview849" inkscape:current-layer="Layer_1" inkscape:cx="1052.2745" inkscape:cy="-69.599258" inkscape:pagecheckerboard="0" inkscape:pageopacity="0.0" inkscape:pageshadow="2" inkscape:window-height="796" inkscape:window-maximized="1" inkscape:window-width="1440" inkscape:window-x="0" inkscape:window-y="25" inkscape:zoom="0.90518206" pagecolor="#ffffff" showgrid="false">
	</sodipodi:namedview>
<g id="g846" transform="translate(-808.56868,-436.71238)" inkscape:export-filename="/Users/nhynes/g846.png" inkscape:export-xdpi="83.720001" inkscape:export-ydpi="83.720001">
	<path id="path826" fill="#EE5B5B" d="M891.5372925,481.817749c-13.6243286,0.9667664-23.2543945,7.4716797-30.8384399,17.4389038
		c-2.1283569,2.8027954-3.6571655,5.965332-4.3766479,9.4276428c-1.1690674,5.598114,2.4281006,8.7531433,7.8688965,6.8871155
		c3.4922485-1.1990356,6.2875977-3.5297241,8.9030762-6.0552673c5.1409912-4.9536133,9.3901978-10.6641846,13.6993408-16.3222656
		c3.4098511-4.4740295,6.9470825-8.8206177,11.5559692-12.1630249c2.862793-2.0758667,5.9653931-3.6496582,9.4651489-4.271698
		c10.4918213-1.858551,18.5780029,3.8520203,20.166748,14.4337769c2.2033081,14.6960449-2.9526978,27.1663208-12.9199219,37.5083008
		c-11.9681396,12.4177856-26.7241821,17.7161865-43.8933105,13.8491821
		c-15.6627808-3.5297852-24.4159546-17.678772-20.5264893-33.2515869
		c3.8744507-15.5129395,13.6393433-25.7874146,29.2721558-29.9241943
		C883.7058716,478.3929138,887.7452393,478.2130737,891.5372925,481.817749L891.5372925,481.817749z M923.2750854,496.2440186
		c-0.0524902-0.509613-0.1574097-1.7536316-0.3222656-2.9901733c-1.2814941-9.3002625-8.5133667-13.4370117-17.2140503-9.8173523
		c-5.0061035,2.083374-8.5283813,5.9953308-11.9232178,10.0121765c-5.2233887,6.1976624-9.6899414,13.0398254-15.4154663,18.8103638
		c-5.6505737,5.6880493-11.810791,10.5143433-20.6314697,9.3226929c-2.2182617-0.2997437-1.7685547,0.9293213-1.2889404,2.2633057
		c1.7386475,4.8337402,5.0810547,8.2435303,9.5250854,10.5967407c6.6473389,3.5222778,13.6993408,4.0693359,21.0810547,3.005127
		C906.5556641,534.6516113,923.3126221,516.0211182,923.2750854,496.2440186L923.2750854,496.2440186z"/>
	<path id="path828" fill="#EE5B5B" d="M847.1343994,519.1611328c-2.8702393,0.0449829-4.6613159-1.1466064-6.3250732-2.3606567
		c-8.7905884-6.4374695-13.7067871-15.0183105-13.8491821-26.0346985c-0.0374146-3.1925354,0.9817505-6.0777588,4.6539307-7.9737854
		c-0.0824585,14.4412231,3.3873291,27.0613708,15.5203857,36.3691406H847.1343994z"/>
	<path id="path830" fill="#EE5B5B" d="M852.4478149,477.0140076c-6.0777588,11.6834106-6.0552979,23.8539124-5.253418,36.1817932
		c-1.4763184-0.2922974-1.4838257-1.4463806-1.7461548-2.308197c-2.7503662-8.8506165-3.6946411-17.821106-1.2590332-26.8815613
		C845.4857178,479.1873169,847.5915527,477.4711304,852.4478149,477.0140076z"/>
	<path id="path832" fill="#EE5B5B" d="M916.0582275,496.9334717c-0.2622681,2.2932129-1.6636963,3.6871338-4.1592407,3.5822144
		c-2.510498-0.1049194-3.9194336-1.6936951-3.8070679-4.1442566c0.1124268-2.4431152,1.6937256-3.9644165,4.1592407-3.822052
		C914.6568604,492.6767883,916.0582275,494.1681213,916.0582275,496.9334717z"/>
	<path id="path834" fill="#EE5B5B" d="M929.5626831,504.3751831c1.7836304-3.7395935,4.4215698-11.8332825,4.6763306-17.8960571
		c1.2290649,0.6070251,3.4772949,3.881958,2.4655762,8.1686096c-2.1882935,9.277771-13.302124,28.6352234-27.218811,38.9621277
		c2.0834351-4.3690796,18.0384521-20.9761353,20.0768433-29.2347107L929.5626831,504.3751831z"/>
	<path id="path836" fill="#EE5B5B" d="M931.4737549,505.3044739c2.4955444-5.7480469,7.8538208-14.2988586,2.7653198-18.8253479
		c0,0-0.2548218,1.3714294-1.37146,4.0993042c-1.348938,3.2824707-14.5686035,35.4473877-37.703125,44.7776489
		C900.6801758,539.4553833,927.4268799,512.8135986,931.4737549,505.3044739L931.4737549,505.3044739z"/>
	<path id="path838" fill="#EE5B5B" d="M893.1485596,523.8674927"/>
	<path id="path840" fill="#EE5B5B" d="M893.1485596,520.6449585"/>
	<path id="path842" fill="#EE5B5B" d="M929.0006104,497.330658"/>
	<path id="path844" fill="#EE5B5B" d="M928.4835205,497.6454163c0.307251,1.3939209,1.1690674,0.10495,1.1690674,0.10495
		s-0.0299683,2.6604004-0.7793579,2.7653503c-0.28479,0.0374451-0.6070557-0.2772827-0.6669922-0.8693237
		C928.093811,498.6496582,928.3861084,497.2032776,928.4835205,497.6454163z"/>
</g>
</svg>
