<?xml version="1.0" encoding="utf-8"?>
<!-- Generator: Adobe Illustrator 25.0.1, SVG Export Plug-In . SVG Version: 6.00 Build 0)  -->
<svg version="1.1" id="Layer_1" xmlns="http://www.w3.org/2000/svg" xmlns:xlink="http://www.w3.org/1999/xlink" x="0px" y="0px"
	 viewBox="0 0 146.78 146.78" style="enable-background:new 0 0 146.78 146.78;" xml:space="preserve">
<style type="text/css">
	.st0{fill:#EE5B5B;}
</style>
<g>
	<path class="st0" d="M86.17,35.65c-18.18,1.29-31.03,9.97-41.15,23.27c-2.84,3.74-4.88,7.96-5.84,12.58
		c-1.56,7.47,3.24,11.68,10.5,9.19c4.66-1.6,8.39-4.71,11.88-8.08C68.42,66,74.09,58.38,79.84,50.83
		c4.55-5.97,9.27-11.77,15.42-16.23c3.82-2.77,7.96-4.87,12.63-5.7c14-2.48,24.79,5.14,26.91,19.26
		c2.94,19.61-3.94,36.25-17.24,50.05c-15.97,16.57-35.66,23.64-58.57,18.48c-20.9-4.71-32.58-23.59-27.39-44.37
		c5.17-20.7,18.2-34.41,39.06-39.93C75.72,31.08,81.11,30.84,86.17,35.65z M128.52,54.9c-0.07-0.68-0.21-2.34-0.43-3.99
		c-1.71-12.41-11.36-17.93-22.97-13.1c-6.68,2.78-11.38,8-15.91,13.36c-6.97,8.27-12.93,17.4-20.57,25.1
		C61.1,83.86,52.88,90.3,41.11,88.71c-2.96-0.4-2.36,1.24-1.72,3.02c2.32,6.45,6.78,11,12.71,14.14c8.87,4.7,18.28,5.43,28.13,4.01
		C106.21,106.15,128.57,81.29,128.52,54.9z"/>
	<path class="st0" d="M26.92,85.48c-3.83,0.06-6.22-1.53-8.44-3.15C6.75,73.74,0.19,62.29,0,47.59c-0.05-4.26,1.31-8.11,6.21-10.64
		C6.1,56.22,10.73,73.06,26.92,85.48z"/>
	<path class="st0" d="M34.01,29.24C25.9,44.83,25.93,61.07,27,77.52c-1.97-0.39-1.98-1.93-2.33-3.08
		C21,62.63,19.74,50.66,22.99,38.57C24.72,32.14,27.53,29.85,34.01,29.24z"/>
	<path class="st0" d="M118.89,55.82c-0.35,3.06-2.22,4.92-5.55,4.78c-3.35-0.14-5.23-2.26-5.08-5.53c0.15-3.26,2.26-5.29,5.55-5.1
		C117.02,50.14,118.89,52.13,118.89,55.82z"/>
	<path class="st0" d="M136.91,65.75c2.38-4.99,5.9-15.79,6.24-23.88c1.64,0.81,4.64,5.18,3.29,10.9
		c-2.92,12.38-17.75,38.21-36.32,51.99C112.9,98.93,134.19,76.77,136.91,65.75z"/>
	<path class="st0" d="M139.46,66.99c3.33-7.67,10.48-19.08,3.69-25.12c0,0-0.34,1.83-1.83,5.47c-1.8,4.38-19.44,47.3-50.31,59.75
		C98.37,112.56,134.06,77.01,139.46,66.99z"/>
	<path class="st0" d="M88.32,91.76"/>
	<path class="st0" d="M88.32,87.46"/>
	<path class="st0" d="M136.16,56.35"/>
	<path class="st0" d="M135.47,56.77c0.41,1.86,1.56,0.14,1.56,0.14s-0.04,3.55-1.04,3.69c-0.38,0.05-0.81-0.37-0.89-1.16
		C134.95,58.11,135.34,56.18,135.47,56.77z"/>
</g>
</svg>
